# Blender v2.79 (sub 0) OBJ File: '5panel.blend'
# www.blender.org
mtllib 5panel.mtl
o Cube_Cube.001
v 2.265810 0.641886 1.827919
v 2.263903 -2.473891 2.771456
v 3.497824 0.248166 1.179938
v 3.333970 -2.357897 1.992643
v 2.204364 2.790004 -2.805957
v 3.502815 2.038490 -2.798560
v 3.485208 1.822274 -0.615173
v 2.253247 2.326966 0.034294
v 3.494169 2.018663 -1.501428
v 2.228874 2.740646 -1.413996
v 2.203053 2.425007 -4.819704
v 3.501481 1.624505 -4.812963
v 2.291431 1.282026 -6.856738
v 3.479894 0.701144 -6.567332
v 2.317240 -0.177788 -8.015227
v 3.436014 -0.201982 -7.180319
v 2.454931 -2.093303 -7.833137
v 3.363532 -2.043380 -7.399833
v 3.398125 -1.088618 -7.375097
v 2.457710 -1.140848 -7.796173
v 1.193945 0.738619 2.011257
v 1.191889 -2.502967 2.984412
v 1.160780 3.026181 -2.817602
v 1.187243 2.470405 0.218255
v 1.174050 2.948105 -1.395337
v 1.159470 2.661184 -4.831348
v 1.205213 1.836642 -6.773471
v 1.237856 0.868134 -8.149308
v 4.538208 -0.272568 -0.449338
v 4.687614 -2.226121 0.109823
v 4.401939 0.919859 -3.116568
v 4.405250 0.774297 -1.652832
v 4.396386 0.905826 -2.246975
v 4.436481 0.644436 -4.467025
v 4.516014 -0.122806 -5.380405
v 4.585559 -0.383564 -5.777018
v 4.741619 -2.147305 -6.026820
v 4.667137 -1.271104 -5.907598
v 4.878341 -2.224290 -3.186075
v 4.615842 -2.963340 3.687906
v 1.002355 -3.387220 6.809000
v 3.803896 -3.277152 5.857543
v 2.367908 -3.411890 6.686714
v 2.242185 -2.701930 2.755193
v 3.312253 -2.585937 1.976380
v 2.433213 -2.321342 -7.849400
v 3.341815 -2.271420 -7.416095
v 1.170171 -2.731007 2.968150
v 4.665897 -2.454160 0.093560
v 4.719902 -2.375345 -6.043083
v 4.856624 -2.452329 -3.202337
v 4.633034 -2.676387 3.710848
v 1.019547 -3.100267 6.831942
v 3.821087 -2.990199 5.880486
v 2.385100 -3.124937 6.709656
v -2.265810 0.641886 1.827919
v 0.000000 0.846170 2.215096
v -2.263903 -2.473891 2.771456
v 0.000000 -2.535295 3.221182
v -3.497824 0.248166 1.179938
v -3.333970 -2.357897 1.992643
v -2.204364 2.790004 -2.805957
v 0.000000 3.288769 -2.830549
v -3.502815 2.038490 -2.798560
v -3.485208 1.822274 -0.615173
v -2.253247 2.326966 0.034294
v 0.000000 2.629885 0.422787
v -3.494169 2.018663 -1.501428
v -2.228874 2.740646 -1.413996
v 0.000000 3.178762 -1.374592
v -2.203053 2.425007 -4.819704
v 0.000000 2.923771 -4.844295
v -3.501481 1.624505 -4.812963
v -2.291431 1.282026 -6.856738
v 0.000000 1.901502 -6.934042
v -3.479894 0.701144 -6.567332
v -2.317240 -0.177788 -8.015227
v 0.000000 0.972896 -8.169186
v -3.436014 -0.201982 -7.180319
v -2.454931 -2.093303 -7.833137
v -3.363532 -2.043380 -7.399833
v -3.398125 -1.088618 -7.375097
v -2.457710 -1.140848 -7.796173
v -1.193945 0.738619 2.011257
v -1.191889 -2.502967 2.984412
v -1.160780 3.026181 -2.817602
v -1.187243 2.470405 0.218255
v -1.174050 2.948105 -1.395337
v -1.159470 2.661184 -4.831348
v -1.205213 1.836642 -6.773471
v -1.237856 0.868134 -8.149308
v -4.538208 -0.272568 -0.449338
v -4.687614 -2.226121 0.109823
v -4.401939 0.919859 -3.116568
v -4.405250 0.774297 -1.652832
v -4.396386 0.905826 -2.246975
v -4.436481 0.644436 -4.467025
v -4.516014 -0.122806 -5.380405
v -4.585559 -0.383564 -5.777018
v -4.741619 -2.147305 -6.026820
v -4.667137 -1.271104 -5.907598
v -4.878341 -2.224290 -3.186075
v -4.615842 -2.963340 3.687906
v -1.002355 -3.387220 6.809000
v -3.803896 -3.277152 5.857543
v 0.000000 -3.387470 6.863235
v -2.367908 -3.411890 6.686714
v 0.000000 -2.079127 -7.833137
v 0.000000 -1.126672 -7.796173
v -2.242185 -2.701930 2.755193
v 0.000000 -2.763335 3.204920
v -3.312253 -2.585937 1.976380
v -2.433213 -2.321342 -7.849400
v -3.341815 -2.271420 -7.416095
v -1.170171 -2.731007 2.968150
v -4.665897 -2.454160 0.093560
v -4.719902 -2.375345 -6.043083
v -4.856624 -2.452329 -3.202337
v -4.633034 -2.676387 3.710848
v -1.019547 -3.100267 6.831942
v -3.821087 -2.990199 5.880486
v 0.000000 -3.101253 6.883266
v -2.385100 -3.124937 6.709656
v 0.000000 -2.307166 -7.849400
vn 0.1830 0.2837 0.9413
vn 0.5324 0.2342 0.8134
vn 0.4987 0.8666 0.0194
vn 0.2068 0.9775 0.0415
vn 0.1959 0.7105 0.6758
vn 0.5291 0.6300 0.5685
vn 0.1824 0.9446 0.2728
vn 0.4814 0.8488 0.2186
vn 0.5067 0.8464 -0.1640
vn 0.2192 0.9600 -0.1741
vn 0.4793 0.7742 -0.4135
vn 0.3046 0.8578 -0.4139
vn 0.4802 0.5238 -0.7036
vn 0.4849 0.6370 -0.5992
vn 0.4184 0.0212 -0.9080
vn 0.5205 0.0177 -0.8537
vn 0.0991 0.8056 -0.5841
vn 0.1546 0.8989 -0.4100
vn 0.1826 0.9417 0.2827
vn 0.1962 0.7003 0.6863
vn 0.2065 0.9764 0.0629
vn 0.1828 0.2815 0.9420
vn 0.7662 0.1341 -0.6285
vn 0.8076 0.5758 0.1276
vn 0.7650 0.4315 -0.4780
vn 0.7478 0.6518 -0.1262
vn 0.8237 0.1610 0.5437
vn 0.7333 0.0692 -0.6764
vn 0.8266 0.4430 0.3471
vn 0.7644 0.5520 -0.3332
vn 0.7815 0.6238 0.0149
vn 0.9779 0.2061 0.0359
vn 0.9890 0.1469 0.0178
vn 0.9940 0.0925 0.0576
vn 0.9948 0.0907 -0.0454
vn 0.9887 0.1499 -0.0053
vn 0.9887 0.1496 0.0087
vn 0.9943 0.0977 -0.0429
vn 0.9898 0.1389 -0.0305
vn 0.9890 0.1467 0.0183
vn 0.0200 0.9872 0.1584
vn 0.9971 -0.0757 0.0044
vn -0.0220 -0.9846 -0.1732
vn -0.0840 -0.9846 -0.1531
vn 0.0002 0.0388 -0.9992
vn 0.9372 -0.0832 0.3387
vn 0.5045 -0.0988 0.8577
vn 0.0874 -0.0846 0.9926
vn 0.0520 -0.0762 0.9957
vn -0.0078 -0.9857 -0.1685
vn 0.4293 0.0235 -0.9029
vn 0.0051 0.9882 0.1532
vn 0.0049 0.9869 0.1615
vn 0.9935 -0.0987 0.0574
vn 0.0004 0.0711 -0.9975
vn -0.0141 -0.9844 -0.1754
vn 0.0578 0.9885 0.1396
vn 0.7051 -0.0166 -0.7089
vn 0.9946 -0.0911 -0.0503
vn -0.1830 0.2837 0.9413
vn -0.5324 0.2342 0.8134
vn -0.4987 0.8666 0.0194
vn -0.2068 0.9775 0.0415
vn -0.1959 0.7105 0.6758
vn -0.5291 0.6300 0.5685
vn -0.1824 0.9446 0.2728
vn -0.4814 0.8488 0.2186
vn -0.5067 0.8464 -0.1640
vn -0.2192 0.9600 -0.1741
vn -0.4793 0.7742 -0.4135
vn -0.3046 0.8578 -0.4139
vn -0.4802 0.5238 -0.7036
vn -0.4849 0.6370 -0.5992
vn -0.4184 0.0212 -0.9080
vn -0.5205 0.0177 -0.8537
vn -0.0991 0.8056 -0.5841
vn -0.1546 0.8989 -0.4100
vn -0.1826 0.9417 0.2827
vn -0.1962 0.7003 0.6863
vn -0.2065 0.9764 0.0629
vn -0.1828 0.2815 0.9420
vn -0.7662 0.1341 -0.6285
vn -0.8076 0.5758 0.1276
vn -0.7650 0.4315 -0.4780
vn -0.7478 0.6518 -0.1262
vn -0.8237 0.1610 0.5437
vn -0.7333 0.0692 -0.6764
vn -0.8266 0.4430 0.3471
vn -0.7644 0.5520 -0.3332
vn -0.7815 0.6238 0.0149
vn -0.9779 0.2061 0.0359
vn -0.9890 0.1469 0.0178
vn -0.9940 0.0925 0.0576
vn -0.9948 0.0907 -0.0454
vn -0.9887 0.1499 -0.0053
vn -0.9887 0.1496 0.0087
vn -0.9943 0.0977 -0.0429
vn -0.9898 0.1389 -0.0305
vn -0.9890 0.1467 0.0183
vn -0.0200 0.9872 0.1584
vn -0.9971 -0.0757 0.0044
vn 0.0220 -0.9846 -0.1732
vn 0.0840 -0.9846 -0.1531
vn -0.0002 0.0388 -0.9992
vn -0.9372 -0.0832 0.3387
vn -0.5045 -0.0988 0.8577
vn -0.0874 -0.0846 0.9926
vn -0.0520 -0.0762 0.9957
vn 0.0078 -0.9857 -0.1685
vn -0.4293 0.0235 -0.9029
vn -0.0051 0.9882 0.1532
vn -0.0049 0.9869 0.1615
vn -0.9935 -0.0987 0.0574
vn -0.0004 0.0711 -0.9975
vn 0.0141 -0.9844 -0.1754
vn -0.0578 0.9885 0.1396
vn -0.7051 -0.0166 -0.7089
vn -0.9946 -0.0911 -0.0503
usemtl None
s off
f 22//1 2//1 1//1 21//1
f 1//2 2//2 4//2 3//2
f 10//3 9//3 6//3 5//3
f 25//4 10//4 5//4 23//4
f 21//5 1//5 8//5 24//5
f 1//6 3//6 7//6 8//6
f 24//7 8//7 10//7 25//7
f 8//8 7//8 9//8 10//8
f 5//9 6//9 12//9 11//9
f 23//10 5//10 11//10 26//10
f 11//11 12//11 14//11 13//11
f 26//12 11//12 13//12 27//12
f 13//13 14//13 16//13 15//13
f 27//14 13//14 15//14 28//14
f 20//15 19//15 18//15 17//15
f 15//16 16//16 19//16 20//16
f 75//17 27//17 28//17 78//17
f 72//18 26//18 27//18 75//18
f 63//10 23//10 26//10 72//10
f 67//19 24//19 25//19 70//19
f 57//20 21//20 24//20 67//20
f 70//21 25//21 23//21 63//21
f 59//22 22//22 21//22 57//22
f 19//23 16//23 36//23 38//23
f 9//24 7//24 32//24 33//24
f 16//25 14//25 35//25 36//25
f 12//26 6//26 31//26 34//26
f 3//27 4//27 30//27 29//27
f 18//28 19//28 38//28 37//28
f 7//29 3//29 29//29 32//29
f 14//30 12//30 34//30 35//30
f 6//31 9//31 33//31 31//31
f 36//32 35//32 39//32
f 33//33 32//33 39//33
f 29//34 30//34 39//34
f 37//35 38//35 39//35
f 34//36 31//36 39//36
f 31//37 33//37 39//37
f 38//38 36//38 39//38
f 35//39 34//39 39//39
f 32//40 29//40 39//40
f 2//41 22//41 53//41 55//41
f 49//42 30//42 52//42 40//42
f 48//43 44//43 43//43 41//43
f 45//44 49//44 40//44 42//44
f 20//45 17//45 108//45 109//45
f 52//46 54//46 42//46 40//46
f 54//47 55//47 43//47 42//47
f 55//48 53//48 41//48 43//48
f 53//49 122//49 106//49 41//49
f 111//50 48//50 41//50 106//50
f 17//51 18//51 47//51 46//51
f 22//52 59//52 122//52 53//52
f 4//53 2//53 55//53 54//53
f 39//54 30//54 49//54 51//54
f 108//55 17//55 46//55 124//55
f 44//56 45//56 42//56 43//56
f 30//57 4//57 54//57 52//57
f 18//58 37//58 50//58 47//58
f 37//59 39//59 51//59 50//59
f 85//60 84//60 56//60 58//60
f 56//61 60//61 61//61 58//61
f 69//62 62//62 64//62 68//62
f 88//63 86//63 62//63 69//63
f 84//64 87//64 66//64 56//64
f 56//65 66//65 65//65 60//65
f 87//66 88//66 69//66 66//66
f 66//67 69//67 68//67 65//67
f 62//68 71//68 73//68 64//68
f 86//69 89//69 71//69 62//69
f 71//70 74//70 76//70 73//70
f 89//71 90//71 74//71 71//71
f 74//72 77//72 79//72 76//72
f 90//73 91//73 77//73 74//73
f 83//74 80//74 81//74 82//74
f 77//75 83//75 82//75 79//75
f 75//76 78//76 91//76 90//76
f 72//77 75//77 90//77 89//77
f 63//69 72//69 89//69 86//69
f 67//78 70//78 88//78 87//78
f 57//79 67//79 87//79 84//79
f 70//80 63//80 86//80 88//80
f 59//81 57//81 84//81 85//81
f 82//82 101//82 99//82 79//82
f 68//83 96//83 95//83 65//83
f 79//84 99//84 98//84 76//84
f 73//85 97//85 94//85 64//85
f 60//86 92//86 93//86 61//86
f 81//87 100//87 101//87 82//87
f 65//88 95//88 92//88 60//88
f 76//89 98//89 97//89 73//89
f 64//90 94//90 96//90 68//90
f 99//91 102//91 98//91
f 96//92 102//92 95//92
f 92//93 102//93 93//93
f 100//94 102//94 101//94
f 97//95 102//95 94//95
f 94//96 102//96 96//96
f 101//97 102//97 99//97
f 98//98 102//98 97//98
f 95//99 102//99 92//99
f 58//100 123//100 120//100 85//100
f 116//101 103//101 119//101 93//101
f 115//102 104//102 107//102 110//102
f 112//103 105//103 103//103 116//103
f 83//104 109//104 108//104 80//104
f 119//105 103//105 105//105 121//105
f 121//106 105//106 107//106 123//106
f 123//107 107//107 104//107 120//107
f 120//108 104//108 106//108 122//108
f 111//109 106//109 104//109 115//109
f 80//110 113//110 114//110 81//110
f 85//111 120//111 122//111 59//111
f 61//112 121//112 123//112 58//112
f 102//113 118//113 116//113 93//113
f 108//114 124//114 113//114 80//114
f 110//115 107//115 105//115 112//115
f 93//116 119//116 121//116 61//116
f 81//117 114//117 117//117 100//117
f 100//118 117//118 118//118 102//118
